<?xml version="1.0" encoding="utf-8"?>
<!-- Generator: Adobe Illustrator 17.0.2, SVG Export Plug-In . SVG Version: 6.00 Build 0)  -->
<!DOCTYPE svg PUBLIC "-//W3C//DTD SVG 1.1//EN" "http://www.w3.org/Graphics/SVG/1.1/DTD/svg11.dtd">
<svg version="1.1" id="Layer_1" xmlns="http://www.w3.org/2000/svg" xmlns:xlink="http://www.w3.org/1999/xlink" x="0px" y="0px"
	 width="163.492px" height="147.116px" viewBox="0 0 163.492 147.116" enable-background="new 0 0 163.492 147.116"
	 xml:space="preserve">
<path id="face" d="M127.059,70.29c0.268-10.28,0.267-20.006,0.261-22.72l-0.013-0.216c-0.286-10.329-19.152-18.342-43.175-18.279
	c-24.19,0.064-43.223,8.287-43.196,18.72c0.001,0.214-0.009,0.644-0.009,0.644C40.924,49.278,41.1,59.2,41.128,69.894
	c-5.149,0.014-9.892,5.071-9.877,10.611c0.015,5.88,5.641,10.427,10.791,10.413l0.058-0.007c0.242,2.526,0.533,4.488,0.886,5.557
	c2.413,7.327,25.082,27.631,41.222,27.589c16.59-0.044,37.448-20.299,40.288-25.551c0.643-1.189,1.14-4.172,1.525-8.134
	c4.879-0.418,9.409-4.807,9.395-10.14C135.403,75.299,131.507,71.19,127.059,70.29z M35.168,80.728
	c-0.009-3.257,3.066-6.345,5.782-6.352l0.042-0.006c0.112,4.482,0.284,8.987,0.548,12.556
	C38.817,86.853,35.177,84.031,35.168,80.728z M126.154,86.288c0.275-3.529,0.464-7.73,0.592-11.93
	c2.729,0.617,4.682,3.022,4.689,5.898C131.443,83.346,129.202,85.906,126.154,86.288z"/>
<path id="head" fill="#FFFFFF" d="M54.426,59.6c7.357,3.261,17.94,5.291,29.699,5.26c12.003-0.032,22.764-2.207,30.118-5.626
	c-5.427-4.955-16.742-8.346-29.819-8.312C71.165,50.958,59.735,54.504,54.426,59.6z"/>
<circle id="ball5" fill="#5E4EFB" cx="108.836" cy="85.622" r="5.59"/>
<circle id="ball4" fill="#5E4EFB" cx="73.003" cy="85.622" r="5.59"/>
<circle id="ball3" fill="#5E4EFB" cx="58.791" cy="85.622" r="9.045"/>
<circle id="ball2" fill="#5E4EFB" cx="101.124" cy="85.622" r="9.045"/>
<circle id="ball1" fill="#5E4EFB" cx="85.547" cy="85.622" r="14.634"/>
<g id="face-mask">
	<g>
		<path fill="#FFFFFF" d="M123.55,55.052c-0.107,17.106-0.777,38.89-2.427,41.948c-2.524,4.67-22.028,23.455-36.92,23.493
			c-14.795,0.039-35.842-19.601-37.638-25.066c-1.388-4.213-1.815-25.852-1.874-40.366c5.708,7.019,21.047,11.902,39.541,11.854
			C102.552,66.867,117.754,62.003,123.55,55.052z"/>
	</g>
</g>
<g id="face-details">
	<rect x="78.31" y="105" transform="matrix(1 -0.0026 0.0026 1 -0.2766 0.2196)" width="12" height="3"/>
	<circle cx="59.334" cy="81.999" r="2.4"/>
	<circle cx="107.334" cy="81.873" r="2.4"/>
	<polygon points="84.29,94.998 75.946,95.02 84.244,77.733 84.263,84.734 80.642,92.007 84.282,91.998 	"/>
</g>
<g>
	<path d="M125.06,45.558c0.014,0.178,0.034,0.355,0.034,0.534c0,9.094-18.409,16.101-40.969,16.101s-40.727-7.007-40.727-16.101
		c0-0.179,0.019-0.356,0.034-0.534l-2.031,1.5c-0.011,0.178-0.03,0.355-0.03,0.534c0,5.269,4.686,10.78,13.208,14.216
		c7.947,3.203,18.492,5.107,29.653,5.107s21.649-2.154,29.597-5.357c8.523-3.435,13.237-8.697,13.237-13.966
		c0-0.179-0.019-0.356-0.03-0.534L125.06,45.558z"/>
</g>
</svg>
